Coordinates
version=1
nRows=11
nColumns=33
inDegrees=yes

Units are S.I. units (second, meters, Newtons, ...)
Angles are in degrees.

endheader
time	ground_thorax_rot_x	ground_thorax_rot_y	ground_thorax_rot_z	ground_thorax_tx	ground_thorax_ty	ground_thorax_tz	clav_prot_r	clav_elev_r	scapula_abduction_r	scapula_elevation_r	scapula_upward_rot_r	scapula_winging_r	shoulder_elv_r	plane_of_elev_r	axial_rot_r	elbow_flexion_r	pro_sup_r	wrist_flex_r	wrist_dev_r	clav_prot_l	clav_elev_l	scapula_abduction_l	scapula_elevation_l	scapula_upward_rot_l	scapula_winging_l	shoulder_elv_l	plane_of_elev_l	axial_rot_l	elbow_flexion_l	pro_sup_l	wrist_flex_l	wrist_dev_l	
5.1700	-40.982295	-4.479848	4.384422	-165.553431	888.991523	-7.881343	9.638282	-45.000000	38.576642	-45.000000	-33.670515	2420.782419	-1727.811343	31.352881	83.282354	17.828838	67.027855	16.997345	3.567280	15.588101	38.675275	-40.095510	-45.000000	-44.582013	-1713.877224	-1895.341024	139.052319	161.123254	1093.478687	51.052020	4.448137	-21.542880	
5.1800	-40.990146	-4.208030	4.130609	-163.177825	891.115532	-7.885886	9.592622	-45.000000	38.995137	-45.000000	-32.389667	2420.735142	-1727.640791	31.401496	83.086084	17.990735	68.638628	16.831599	3.468374	15.576525	38.766243	-40.382446	-45.000000	-44.283153	-1713.696640	-1895.136491	138.902066	161.601780	1093.515750	51.004922	4.398899	-21.533772	
5.1900	-40.999137	-3.939712	3.877371	-160.661831	893.076957	-7.893045	9.523766	-45.000000	39.400878	-45.000000	-31.068850	2420.714012	-1727.471103	31.436713	82.880184	18.147452	70.162791	16.664485	3.379822	15.571813	38.882594	-40.653795	-45.000000	-43.870754	-1713.541059	-1894.964791	138.789977	162.089158	1093.543450	50.884590	4.360032	-21.530253	
5.2000	-41.009085	-3.666139	3.615039	-158.003526	894.852526	-7.900712	9.446996	-45.000000	39.796188	-45.000000	-29.731614	2420.708279	-1727.314505	31.480423	82.648193	18.297116	71.592849	16.487010	3.300666	15.543399	39.016995	-40.912737	-45.000000	-43.341082	-1713.401472	-1894.827855	138.700013	162.567342	1093.561726	50.691262	4.346307	-21.548155	
5.2100	-41.019363	-3.395227	3.350674	-155.201277	896.419685	-7.906598	9.350692	-45.000000	40.192215	-45.000000	-28.333634	2420.722294	-1727.177060	31.505245	82.421320	18.434939	72.961276	16.316490	3.237552	15.564379	39.176458	-41.163659	-45.000000	-42.724905	-1713.286184	-1894.726765	138.632138	163.061943	1093.567535	50.413760	4.342125	-21.567466	
5.2200	-41.031115	-3.130147	3.089696	-152.254089	897.756264	-7.908934	9.250032	-45.000000	40.584078	-45.000000	-26.949465	2420.752217	-1727.065417	31.536331	82.158546	18.557492	74.248049	16.136411	3.186986	15.559713	39.344113	-41.405603	-45.000000	-42.035940	-1713.177352	-1894.653819	138.561406	163.551123	1093.559665	50.051552	4.364927	-21.604690	
5.2300	-41.042004	-2.876863	2.840848	-149.161370	898.840458	-7.907062	9.125173	-45.000000	40.974933	-45.000000	-25.525571	2420.801708	-1726.976848	31.544126	81.888923	18.668071	75.472411	15.969175	3.153519	15.611369	39.529466	-41.648925	-45.000000	-41.316672	-1713.092820	-1894.607332	138.498893	164.063267	1093.537775	49.582424	4.395735	-21.636916	
5.2400	-41.052969	-2.632064	2.596874	-145.923703	899.651287	-7.901764	9.003769	-45.000000	41.358558	-45.000000	-24.144108	2420.865409	-1726.921047	31.569274	81.557381	18.764643	76.605825	15.788415	3.131726	15.611199	39.719310	-41.887211	-45.000000	-40.556679	-1713.008133	-1894.587908	138.420514	164.547841	1093.502074	49.005515	4.466445	-21.695400	
5.2500	-41.059941	-2.394100	2.363857	-142.542337	900.169561	-7.895315	8.860886	-45.000000	41.737990	-45.000000	-22.728653	2420.943113	-1726.891011	31.576242	81.203409	18.857587	77.665456	15.625230	3.124062	15.660728	39.927968	-42.131391	-45.000000	-39.772752	-1712.952099	-1894.601616	138.354506	165.035106	1093.450266	48.285750	4.554473	-21.752878	
5.2600	-41.063000	-2.163694	2.140619	-139.020066	900.379187	-7.891218	8.718289	-45.000000	42.110537	-45.000000	-21.345502	2421.032430	-1726.893663	31.591089	80.793203	18.944153	78.630194	15.462093	3.126213	15.676362	40.144082	-42.371932	-45.000000	-38.949453	-1712.909848	-1894.649089	138.287281	165.490744	1093.378412	47.406805	4.685178	-21.830456	
5.2700	-41.055911	-1.939135	1.931438	-135.360703	900.268516	-7.893703	8.554590	-45.000000	42.480590	-45.000000	-19.922951	2421.132645	-1726.922840	31.582853	80.374335	19.028973	79.519346	15.328640	3.141307	15.756603	40.374990	-42.620623	-44.999999	-38.119504	-1712.908133	-1894.731460	138.240523	165.958896	1093.287223	46.323501	4.839220	-21.902784	
